<svg width="118" height="118" viewBox="0 0 118 118" fill="none" xmlns="http://www.w3.org/2000/svg">
<circle cx="59" cy="59" r="59" fill="#6732B3"/>
<path d="M57.0161 62.0963C54.3326 61.3394 51.7179 60.445 49.172 59.4128C46.695 58.3119 44.4931 56.9702 42.5665 55.3876C40.7087 53.7362 39.195 51.7752 38.0252 49.5046C36.8555 47.2339 36.2706 44.4817 36.2706 41.2477C36.2706 38.2202 36.8211 35.5023 37.922 33.094C39.0917 30.6858 40.6055 28.656 42.4633 27.0046C44.3899 25.2844 46.5917 23.9427 49.0688 22.9794C51.6147 21.9472 54.2638 21.3624 57.0161 21.2248V14H62.2798V21.1216C65.8578 21.1904 69.4702 21.8784 73.117 23.1858C76.8326 24.4243 79.9977 26.3509 82.6124 28.9656L75.594 35.4679C74.0115 33.4725 71.9817 31.9587 69.5046 30.9266C67.0963 29.8945 64.6881 29.344 62.2798 29.2752V53.8394C64.8945 54.7339 67.4748 55.7317 70.0206 56.8326C72.6353 57.9335 74.9404 59.344 76.9358 61.0642C79 62.7156 80.6514 64.7454 81.8899 67.1537C83.1284 69.5619 83.7477 72.4518 83.7477 75.8234C83.7477 79.0573 83.1628 81.9472 81.9931 84.4931C80.8922 87.039 79.344 89.2064 77.3486 90.9954C75.422 92.7844 73.1514 94.1605 70.5367 95.1238C67.922 96.0183 65.1697 96.5 62.2798 96.5688V104H57.0161V96.5688C52.406 96.4312 48.1399 95.5023 44.2179 93.7821C40.2959 91.9931 36.8899 89.5161 34 86.3509L41.5344 79.9518C42.4289 81.2592 43.5298 82.4289 44.8372 83.461C46.1445 84.4931 47.4862 85.3876 48.8624 86.1445C50.2385 86.8326 51.6147 87.383 52.9908 87.7959C54.4358 88.1399 55.7775 88.3119 57.0161 88.3119V62.0963ZM62.2798 88.3119C63.7936 88.2431 65.2385 87.9335 66.6147 87.383C67.9908 86.8326 69.195 86.0757 70.2271 85.1124C71.328 84.0803 72.1881 82.8073 72.8073 81.2936C73.4954 79.7798 73.8395 77.9908 73.8395 75.9266C73.8395 72.6239 72.7385 70.0092 70.5367 68.0826C68.3349 66.156 65.5826 64.6422 62.2798 63.5413V88.3119ZM57.0161 29.2752C53.9885 29.4817 51.4083 30.5826 49.2752 32.578C47.1422 34.5046 46.0757 37.1881 46.0757 40.6284C46.0757 43.9312 47.0734 46.4771 49.0688 48.2661C51.133 49.9862 53.7821 51.328 57.0161 52.2913V29.2752Z" fill="white"/>
</svg>

