<svg width="1020" height="157" viewBox="0 0 1020 157" fill="none" xmlns="http://www.w3.org/2000/svg">
<path d="M2 12.8933V117H1020" stroke="#D09CFF"/>
<path d="M4 113.24L73.858 92.0933L101.378 103.48L179.704 79.08H236.86L310.952 69.32H410.447L444.317 35.16L484.539 69.32L605.203 22.1467L672.944 35.16L770.321 1H897.336L929.09 22.1467L1018 1" stroke="#009AFF" stroke-width="2"/>
<path fill-rule="evenodd" clip-rule="evenodd" d="M5.10991 114.935L74.7385 93.7887L102.168 105.175L180.236 80.7754H237.205L311.054 71.0154H410.222L443.981 36.8554L484.071 71.0154L604.338 23.8421L671.857 36.8554L768.915 2.69541H895.512L927.162 23.8421L1015.78 2.69541L1020 0.69339V116.562H3V114.935H5.10991Z" fill="#18064D"/>
<g clip-path="url(#clip0)">
<path d="M35.6865 21.2813L26.8462 26.7188L18 21.2813L26.8462 6L35.6865 21.2813ZM26.8462 28.4648L18 23.0273L26.8462 36L35.6923 23.0273L26.8462 28.4648Z" fill="white"/>
</g>
<path d="M72.8438 128.047H74.5664V135.026C74.5664 135.979 74.2679 136.735 73.6709 137.296C73.0785 137.856 72.2946 138.137 71.3193 138.137C70.2803 138.137 69.4782 137.875 68.9131 137.351C68.348 136.826 68.0654 136.097 68.0654 135.163H69.7881C69.7881 135.692 69.918 136.09 70.1777 136.359C70.4421 136.624 70.8226 136.756 71.3193 136.756C71.7842 136.756 72.1533 136.603 72.4268 136.298C72.7048 135.988 72.8438 135.562 72.8438 135.02V128.047ZM80.8076 138C80.7347 137.859 80.6709 137.629 80.6162 137.31C80.0876 137.861 79.4404 138.137 78.6748 138.137C77.932 138.137 77.3258 137.925 76.8564 137.501C76.387 137.077 76.1523 136.553 76.1523 135.929C76.1523 135.14 76.444 134.536 77.0273 134.117C77.6152 133.693 78.4538 133.481 79.543 133.481H80.5615V132.996C80.5615 132.613 80.4544 132.308 80.2402 132.08C80.026 131.848 79.7002 131.731 79.2627 131.731C78.8844 131.731 78.5745 131.827 78.333 132.019C78.0915 132.205 77.9707 132.445 77.9707 132.736H76.3096C76.3096 132.331 76.444 131.952 76.7129 131.602C76.9818 131.246 77.3464 130.968 77.8066 130.768C78.2715 130.567 78.7887 130.467 79.3584 130.467C80.2243 130.467 80.9147 130.686 81.4297 131.123C81.9447 131.556 82.209 132.167 82.2227 132.955V136.291C82.2227 136.956 82.3161 137.487 82.5029 137.884V138H80.8076ZM78.9824 136.804C79.3105 136.804 79.6182 136.724 79.9053 136.564C80.1969 136.405 80.4157 136.191 80.5615 135.922V134.527H79.666C79.0508 134.527 78.5882 134.634 78.2783 134.849C77.9684 135.063 77.8135 135.366 77.8135 135.758C77.8135 136.077 77.9183 136.332 78.1279 136.523C78.3421 136.71 78.627 136.804 78.9824 136.804ZM85.5039 130.604L85.5518 131.458C86.0986 130.797 86.8164 130.467 87.7051 130.467C89.2454 130.467 90.0293 131.349 90.0566 133.112V138H88.3955V133.208C88.3955 132.739 88.293 132.392 88.0879 132.169C87.8874 131.941 87.557 131.827 87.0967 131.827C86.4268 131.827 85.9277 132.13 85.5996 132.736V138H83.9385V130.604H85.5039ZM153.433 133.782H149.427V138H147.697V128.047H154.021V129.441H149.427V132.401H153.433V133.782ZM158.341 138.137C157.288 138.137 156.434 137.806 155.777 137.146C155.126 136.48 154.8 135.596 154.8 134.493V134.288C154.8 133.55 154.941 132.891 155.224 132.312C155.511 131.729 155.912 131.276 156.427 130.952C156.942 130.629 157.516 130.467 158.149 130.467C159.157 130.467 159.934 130.788 160.48 131.431C161.032 132.073 161.308 132.982 161.308 134.158V134.828H156.475C156.525 135.439 156.728 135.922 157.083 136.277C157.443 136.633 157.894 136.811 158.437 136.811C159.198 136.811 159.817 136.503 160.296 135.888L161.191 136.742C160.895 137.184 160.499 137.528 160.002 137.774C159.51 138.016 158.956 138.137 158.341 138.137ZM158.143 131.8C157.687 131.8 157.318 131.959 157.035 132.278C156.757 132.597 156.579 133.042 156.502 133.611H159.667V133.488C159.631 132.932 159.482 132.513 159.223 132.23C158.963 131.943 158.603 131.8 158.143 131.8ZM165.115 135.895L166.681 130.604H168.396L165.833 138H164.391L161.807 130.604H163.529L165.115 135.895ZM227.623 128.047L230.494 135.676L233.358 128.047H235.594V138H233.871V134.719L234.042 130.33L231.103 138H229.865L226.933 130.337L227.104 134.719V138H225.381V128.047H227.623ZM241.903 138C241.83 137.859 241.767 137.629 241.712 137.31C241.183 137.861 240.536 138.137 239.771 138.137C239.028 138.137 238.422 137.925 237.952 137.501C237.483 137.077 237.248 136.553 237.248 135.929C237.248 135.14 237.54 134.536 238.123 134.117C238.711 133.693 239.549 133.481 240.639 133.481H241.657V132.996C241.657 132.613 241.55 132.308 241.336 132.08C241.122 131.848 240.796 131.731 240.358 131.731C239.98 131.731 239.67 131.827 239.429 132.019C239.187 132.205 239.066 132.445 239.066 132.736H237.405C237.405 132.331 237.54 131.952 237.809 131.602C238.077 131.246 238.442 130.968 238.902 130.768C239.367 130.567 239.884 130.467 240.454 130.467C241.32 130.467 242.01 130.686 242.525 131.123C243.04 131.556 243.305 132.167 243.318 132.955V136.291C243.318 136.956 243.412 137.487 243.599 137.884V138H241.903ZM240.078 136.804C240.406 136.804 240.714 136.724 241.001 136.564C241.293 136.405 241.511 136.191 241.657 135.922V134.527H240.762C240.146 134.527 239.684 134.634 239.374 134.849C239.064 135.063 238.909 135.366 238.909 135.758C238.909 136.077 239.014 136.332 239.224 136.523C239.438 136.71 239.723 136.804 240.078 136.804ZM248.931 132.121C248.712 132.085 248.486 132.066 248.254 132.066C247.493 132.066 246.98 132.358 246.716 132.941V138H245.055V130.604H246.641L246.682 131.431C247.083 130.788 247.639 130.467 248.35 130.467C248.587 130.467 248.783 130.499 248.938 130.562L248.931 132.121ZM311.493 135.683H307.638L306.831 138H305.033L308.793 128.047H310.345L314.111 138H312.307L311.493 135.683ZM308.123 134.288H311.008L309.565 130.159L308.123 134.288ZM321.234 134.377C321.234 135.521 320.975 136.435 320.455 137.118C319.936 137.797 319.238 138.137 318.363 138.137C317.552 138.137 316.903 137.87 316.415 137.337V140.844H314.754V130.604H316.285L316.354 131.355C316.841 130.763 317.504 130.467 318.343 130.467C319.245 130.467 319.951 130.804 320.462 131.479C320.977 132.148 321.234 133.08 321.234 134.274V134.377ZM319.58 134.233C319.58 133.495 319.432 132.91 319.136 132.477C318.844 132.044 318.425 131.827 317.878 131.827C317.199 131.827 316.711 132.107 316.415 132.668V135.949C316.716 136.523 317.208 136.811 317.892 136.811C318.42 136.811 318.833 136.599 319.129 136.175C319.43 135.746 319.58 135.099 319.58 134.233ZM326.519 132.121C326.3 132.085 326.074 132.066 325.842 132.066C325.081 132.066 324.568 132.358 324.304 132.941V138H322.643V130.604H324.229L324.27 131.431C324.671 130.788 325.227 130.467 325.938 130.467C326.174 130.467 326.37 130.499 326.525 130.562L326.519 132.121ZM382.266 128.047L385.137 135.676L388.001 128.047H390.236V138H388.514V134.719L388.685 130.33L385.745 138H384.508L381.575 130.337L381.746 134.719V138H380.023V128.047H382.266ZM396.546 138C396.473 137.859 396.409 137.629 396.354 137.31C395.826 137.861 395.179 138.137 394.413 138.137C393.67 138.137 393.064 137.925 392.595 137.501C392.125 137.077 391.891 136.553 391.891 135.929C391.891 135.14 392.182 134.536 392.766 134.117C393.354 133.693 394.192 133.481 395.281 133.481H396.3V132.996C396.3 132.613 396.193 132.308 395.979 132.08C395.764 131.848 395.438 131.731 395.001 131.731C394.623 131.731 394.313 131.827 394.071 132.019C393.83 132.205 393.709 132.445 393.709 132.736H392.048C392.048 132.331 392.182 131.952 392.451 131.602C392.72 131.246 393.085 130.968 393.545 130.768C394.01 130.567 394.527 130.467 395.097 130.467C395.963 130.467 396.653 130.686 397.168 131.123C397.683 131.556 397.947 132.167 397.961 132.955V136.291C397.961 136.956 398.054 137.487 398.241 137.884V138H396.546ZM394.721 136.804C395.049 136.804 395.356 136.724 395.644 136.564C395.935 136.405 396.154 136.191 396.3 135.922V134.527H395.404C394.789 134.527 394.326 134.634 394.017 134.849C393.707 135.063 393.552 135.366 393.552 135.758C393.552 136.077 393.657 136.332 393.866 136.523C394.08 136.71 394.365 136.804 394.721 136.804ZM402.179 135.621L403.683 130.604H405.453L402.514 139.121C402.062 140.365 401.297 140.987 400.217 140.987C399.975 140.987 399.709 140.946 399.417 140.864V139.579L399.731 139.6C400.151 139.6 400.465 139.522 400.675 139.367C400.889 139.217 401.058 138.962 401.181 138.602L401.42 137.966L398.822 130.604H400.613L402.179 135.621ZM466.43 128.047H468.152V135.026C468.152 135.979 467.854 136.735 467.257 137.296C466.664 137.856 465.881 138.137 464.905 138.137C463.866 138.137 463.064 137.875 462.499 137.351C461.934 136.826 461.651 136.097 461.651 135.163H463.374C463.374 135.692 463.504 136.09 463.764 136.359C464.028 136.624 464.409 136.756 464.905 136.756C465.37 136.756 465.739 136.603 466.013 136.298C466.291 135.988 466.43 135.562 466.43 135.02V128.047ZM474.455 137.275C473.967 137.85 473.275 138.137 472.377 138.137C471.575 138.137 470.966 137.902 470.552 137.433C470.142 136.963 469.937 136.284 469.937 135.396V130.604H471.598V135.375C471.598 136.314 471.987 136.783 472.767 136.783C473.573 136.783 474.118 136.494 474.4 135.915V130.604H476.062V138H474.496L474.455 137.275ZM479.295 130.604L479.343 131.458C479.89 130.797 480.607 130.467 481.496 130.467C483.036 130.467 483.82 131.349 483.848 133.112V138H482.187V133.208C482.187 132.739 482.084 132.392 481.879 132.169C481.678 131.941 481.348 131.827 480.888 131.827C480.218 131.827 479.719 132.13 479.391 132.736V138H477.729V130.604H479.295ZM545.562 128.047H547.285V135.026C547.285 135.979 546.987 136.735 546.39 137.296C545.797 137.856 545.013 138.137 544.038 138.137C542.999 138.137 542.197 137.875 541.632 137.351C541.067 136.826 540.784 136.097 540.784 135.163H542.507C542.507 135.692 542.637 136.09 542.896 136.359C543.161 136.624 543.541 136.756 544.038 136.756C544.503 136.756 544.872 136.603 545.146 136.298C545.424 135.988 545.562 135.562 545.562 135.02V128.047ZM553.588 137.275C553.1 137.85 552.408 138.137 551.51 138.137C550.708 138.137 550.099 137.902 549.685 137.433C549.274 136.963 549.069 136.284 549.069 135.396V130.604H550.73V135.375C550.73 136.314 551.12 136.783 551.899 136.783C552.706 136.783 553.251 136.494 553.533 135.915V130.604H555.194V138H553.629L553.588 137.275ZM558.653 138H556.992V127.5H558.653V138ZM621.981 135.683H618.126L617.319 138H615.521L619.281 128.047H620.833L624.6 138H622.795L621.981 135.683ZM618.611 134.288H621.496L620.054 130.159L618.611 134.288ZM629.973 137.275C629.485 137.85 628.792 138.137 627.895 138.137C627.092 138.137 626.484 137.902 626.069 137.433C625.659 136.963 625.454 136.284 625.454 135.396V130.604H627.115V135.375C627.115 136.314 627.505 136.783 628.284 136.783C629.091 136.783 629.635 136.494 629.918 135.915V130.604H631.579V138H630.014L629.973 137.275ZM632.98 134.247C632.98 133.099 633.249 132.183 633.787 131.499C634.329 130.811 635.047 130.467 635.94 130.467C636.784 130.467 637.447 130.761 637.93 131.349L638.005 130.604H639.502V137.774C639.502 138.745 639.199 139.511 638.593 140.071C637.991 140.632 637.178 140.912 636.152 140.912C635.61 140.912 635.079 140.798 634.56 140.57C634.045 140.347 633.653 140.053 633.384 139.688L634.17 138.69C634.68 139.297 635.309 139.6 636.057 139.6C636.608 139.6 637.043 139.449 637.362 139.148C637.681 138.852 637.841 138.415 637.841 137.836V137.337C637.362 137.87 636.724 138.137 635.927 138.137C635.061 138.137 634.352 137.793 633.801 137.104C633.254 136.416 632.98 135.464 632.98 134.247ZM634.635 134.391C634.635 135.133 634.785 135.719 635.086 136.147C635.391 136.571 635.813 136.783 636.351 136.783C637.021 136.783 637.517 136.496 637.841 135.922V132.668C637.526 132.107 637.034 131.827 636.364 131.827C635.817 131.827 635.391 132.044 635.086 132.477C634.785 132.91 634.635 133.548 634.635 134.391ZM702.358 135.437C702.358 134.999 702.203 134.662 701.894 134.425C701.588 134.188 701.035 133.949 700.232 133.707C699.43 133.465 698.792 133.197 698.318 132.9C697.411 132.331 696.958 131.588 696.958 130.672C696.958 129.87 697.284 129.209 697.936 128.689C698.592 128.17 699.442 127.91 700.485 127.91C701.178 127.91 701.796 128.038 702.338 128.293C702.88 128.548 703.306 128.913 703.616 129.387C703.926 129.856 704.081 130.378 704.081 130.952H702.358C702.358 130.433 702.194 130.027 701.866 129.735C701.543 129.439 701.078 129.291 700.472 129.291C699.907 129.291 699.467 129.412 699.152 129.653C698.842 129.895 698.688 130.232 698.688 130.665C698.688 131.03 698.856 131.335 699.193 131.581C699.531 131.823 700.087 132.06 700.861 132.292C701.636 132.52 702.258 132.782 702.728 133.078C703.197 133.37 703.541 133.707 703.76 134.09C703.979 134.468 704.088 134.912 704.088 135.423C704.088 136.252 703.769 136.913 703.131 137.405C702.497 137.893 701.636 138.137 700.547 138.137C699.827 138.137 699.164 138.005 698.558 137.74C697.956 137.471 697.487 137.102 697.149 136.633C696.817 136.163 696.65 135.617 696.65 134.992H698.38C698.38 135.557 698.567 135.995 698.94 136.305C699.314 136.615 699.85 136.77 700.547 136.77C701.148 136.77 701.6 136.649 701.9 136.407C702.206 136.161 702.358 135.838 702.358 135.437ZM708.702 138.137C707.649 138.137 706.795 137.806 706.139 137.146C705.487 136.48 705.161 135.596 705.161 134.493V134.288C705.161 133.55 705.302 132.891 705.585 132.312C705.872 131.729 706.273 131.276 706.788 130.952C707.303 130.629 707.877 130.467 708.511 130.467C709.518 130.467 710.295 130.788 710.842 131.431C711.393 132.073 711.669 132.982 711.669 134.158V134.828H706.836C706.886 135.439 707.089 135.922 707.444 136.277C707.804 136.633 708.256 136.811 708.798 136.811C709.559 136.811 710.179 136.503 710.657 135.888L711.553 136.742C711.257 137.184 710.86 137.528 710.363 137.774C709.871 138.016 709.317 138.137 708.702 138.137ZM708.504 131.8C708.048 131.8 707.679 131.959 707.396 132.278C707.118 132.597 706.941 133.042 706.863 133.611H710.028V133.488C709.992 132.932 709.844 132.513 709.584 132.23C709.324 131.943 708.964 131.8 708.504 131.8ZM719.441 134.377C719.441 135.521 719.182 136.435 718.662 137.118C718.143 137.797 717.445 138.137 716.57 138.137C715.759 138.137 715.11 137.87 714.622 137.337V140.844H712.961V130.604H714.492L714.561 131.355C715.048 130.763 715.711 130.467 716.55 130.467C717.452 130.467 718.159 130.804 718.669 131.479C719.184 132.148 719.441 133.08 719.441 134.274V134.377ZM717.787 134.233C717.787 133.495 717.639 132.91 717.343 132.477C717.051 132.044 716.632 131.827 716.085 131.827C715.406 131.827 714.918 132.107 714.622 132.668V135.949C714.923 136.523 715.415 136.811 716.099 136.811C716.627 136.811 717.04 136.599 717.336 136.175C717.637 135.746 717.787 135.099 717.787 134.233ZM781.252 133.283C781.252 134.258 781.083 135.115 780.746 135.854C780.409 136.587 779.926 137.152 779.297 137.549C778.673 137.941 777.952 138.137 777.137 138.137C776.33 138.137 775.61 137.941 774.977 137.549C774.348 137.152 773.86 136.59 773.514 135.86C773.172 135.131 772.999 134.29 772.994 133.338V132.777C772.994 131.807 773.165 130.95 773.507 130.207C773.853 129.464 774.339 128.897 774.963 128.505C775.592 128.108 776.312 127.91 777.123 127.91C777.934 127.91 778.652 128.106 779.276 128.498C779.905 128.885 780.391 129.446 780.732 130.18C781.074 130.909 781.247 131.759 781.252 132.729V133.283ZM779.522 132.764C779.522 131.661 779.313 130.815 778.894 130.228C778.479 129.64 777.889 129.346 777.123 129.346C776.376 129.346 775.79 129.64 775.366 130.228C774.947 130.811 774.733 131.638 774.724 132.709V133.283C774.724 134.377 774.936 135.222 775.359 135.819C775.788 136.416 776.38 136.715 777.137 136.715C777.902 136.715 778.49 136.423 778.9 135.84C779.315 135.257 779.522 134.404 779.522 133.283V132.764ZM785.853 136.811C786.267 136.811 786.611 136.69 786.885 136.448C787.158 136.207 787.304 135.908 787.322 135.553H788.888C788.869 136.013 788.726 136.444 788.457 136.845C788.188 137.241 787.824 137.556 787.363 137.788C786.903 138.021 786.406 138.137 785.873 138.137C784.839 138.137 784.018 137.802 783.412 137.132C782.806 136.462 782.503 135.537 782.503 134.356V134.186C782.503 133.06 782.804 132.16 783.405 131.485C784.007 130.806 784.827 130.467 785.866 130.467C786.746 130.467 787.461 130.724 788.013 131.239C788.569 131.75 788.86 132.422 788.888 133.256H787.322C787.304 132.832 787.158 132.483 786.885 132.21C786.616 131.937 786.272 131.8 785.853 131.8C785.315 131.8 784.9 131.996 784.608 132.388C784.317 132.775 784.169 133.365 784.164 134.158V134.425C784.164 135.227 784.308 135.826 784.595 136.223C784.886 136.615 785.306 136.811 785.853 136.811ZM792.224 128.806V130.604H793.529V131.834H792.224V135.963C792.224 136.245 792.278 136.451 792.388 136.578C792.502 136.701 792.702 136.763 792.989 136.763C793.181 136.763 793.374 136.74 793.57 136.694V137.979C793.192 138.084 792.827 138.137 792.477 138.137C791.201 138.137 790.562 137.433 790.562 136.024V131.834H789.346V130.604H790.562V128.806H792.224ZM858.642 138H856.912L852.476 130.938V138H850.746V128.047H852.476L856.926 135.136V128.047H858.642V138ZM860.214 134.233C860.214 133.509 860.357 132.857 860.645 132.278C860.932 131.695 861.335 131.248 861.854 130.938C862.374 130.624 862.971 130.467 863.646 130.467C864.644 130.467 865.452 130.788 866.072 131.431C866.697 132.073 867.034 132.925 867.084 133.987L867.091 134.377C867.091 135.106 866.95 135.758 866.667 136.332C866.389 136.906 865.988 137.351 865.464 137.665C864.944 137.979 864.343 138.137 863.659 138.137C862.616 138.137 861.779 137.79 861.15 137.098C860.526 136.4 860.214 135.473 860.214 134.315V134.233ZM861.875 134.377C861.875 135.138 862.032 135.735 862.347 136.168C862.661 136.596 863.099 136.811 863.659 136.811C864.22 136.811 864.655 136.592 864.965 136.154C865.279 135.717 865.437 135.076 865.437 134.233C865.437 133.486 865.275 132.894 864.951 132.456C864.632 132.019 864.197 131.8 863.646 131.8C863.103 131.8 862.673 132.016 862.354 132.449C862.035 132.878 861.875 133.52 861.875 134.377ZM870.994 135.895L872.56 130.604H874.275L871.712 138H870.27L867.686 130.604H869.408L870.994 135.895ZM931.26 138V128.047H934.199C935.079 128.047 935.858 128.243 936.537 128.635C937.221 129.027 937.749 129.583 938.123 130.303C938.497 131.023 938.684 131.848 938.684 132.777V133.276C938.684 134.22 938.494 135.049 938.116 135.765C937.743 136.48 937.207 137.032 936.51 137.419C935.817 137.806 935.022 138 934.124 138H931.26ZM932.989 129.441V136.619H934.117C935.024 136.619 935.719 136.337 936.202 135.771C936.69 135.202 936.938 134.386 936.947 133.324V132.771C936.947 131.69 936.713 130.866 936.243 130.296C935.774 129.726 935.092 129.441 934.199 129.441H932.989ZM943.503 138.137C942.45 138.137 941.596 137.806 940.939 137.146C940.288 136.48 939.962 135.596 939.962 134.493V134.288C939.962 133.55 940.103 132.891 940.386 132.312C940.673 131.729 941.074 131.276 941.589 130.952C942.104 130.629 942.678 130.467 943.312 130.467C944.319 130.467 945.096 130.788 945.643 131.431C946.194 132.073 946.47 132.982 946.47 134.158V134.828H941.637C941.687 135.439 941.89 135.922 942.245 136.277C942.605 136.633 943.056 136.811 943.599 136.811C944.36 136.811 944.979 136.503 945.458 135.888L946.354 136.742C946.057 137.184 945.661 137.528 945.164 137.774C944.672 138.016 944.118 138.137 943.503 138.137ZM943.305 131.8C942.849 131.8 942.48 131.959 942.197 132.278C941.919 132.597 941.742 133.042 941.664 133.611H944.829V133.488C944.793 132.932 944.645 132.513 944.385 132.23C944.125 131.943 943.765 131.8 943.305 131.8ZM950.804 136.811C951.218 136.811 951.562 136.69 951.836 136.448C952.109 136.207 952.255 135.908 952.273 135.553H953.839C953.821 136.013 953.677 136.444 953.408 136.845C953.139 137.241 952.775 137.556 952.314 137.788C951.854 138.021 951.357 138.137 950.824 138.137C949.79 138.137 948.969 137.802 948.363 137.132C947.757 136.462 947.454 135.537 947.454 134.356V134.186C947.454 133.06 947.755 132.16 948.356 131.485C948.958 130.806 949.778 130.467 950.817 130.467C951.697 130.467 952.412 130.724 952.964 131.239C953.52 131.75 953.812 132.422 953.839 133.256H952.273C952.255 132.832 952.109 132.483 951.836 132.21C951.567 131.937 951.223 131.8 950.804 131.8C950.266 131.8 949.851 131.996 949.56 132.388C949.268 132.775 949.12 133.365 949.115 134.158V134.425C949.115 135.227 949.259 135.826 949.546 136.223C949.838 136.615 950.257 136.811 950.804 136.811Z" fill="white"/>
<defs>
<clipPath id="clip0">
<rect width="17.6923" height="30" fill="white" transform="translate(18 6)"/>
</clipPath>
</defs>
</svg>
