<svg width="20" height="19" viewBox="0 0 20 19" fill="none" xmlns="http://www.w3.org/2000/svg">
<path d="M6.89195 15.2444C6.89195 15.3181 6.80706 15.3769 6.70002 15.3769C6.57821 15.388 6.49332 15.3291 6.49332 15.2444C6.49332 15.1708 6.57821 15.1119 6.68525 15.1119C6.79598 15.1009 6.89195 15.1598 6.89195 15.2444ZM5.74404 15.0788C5.71821 15.1524 5.79203 15.2371 5.90276 15.2592C5.99872 15.296 6.10945 15.2592 6.1316 15.1855C6.15375 15.1119 6.08362 15.0273 5.97289 14.9941C5.87692 14.9684 5.76988 15.0052 5.74404 15.0788ZM7.37547 15.0162C7.26843 15.042 7.19461 15.1119 7.20569 15.1966C7.21676 15.2702 7.31273 15.3181 7.42346 15.2923C7.5305 15.2665 7.60431 15.1966 7.59324 15.123C7.58217 15.053 7.48251 15.0052 7.37547 15.0162ZM9.80416 0.911255C4.68472 0.911255 0.768555 4.78718 0.768555 9.8925C0.768555 13.9746 3.34488 17.4677 7.02483 18.6971C7.49728 18.7817 7.66337 18.4909 7.66337 18.2517C7.66337 18.0235 7.6523 16.7646 7.6523 15.9916C7.6523 15.9916 5.06859 16.5438 4.52601 14.8948C4.52601 14.8948 4.10523 13.8236 3.49991 13.5476C3.49991 13.5476 2.65466 12.9697 3.55896 12.9807C3.55896 12.9807 4.47802 13.0543 4.98369 13.9304C5.79203 15.3512 7.14663 14.9426 7.67444 14.6997C7.75934 14.1107 7.99925 13.7022 8.26501 13.4592C6.20173 13.231 4.12 12.9329 4.12 9.39191C4.12 8.37968 4.40051 7.87172 4.99108 7.22389C4.89511 6.98464 4.58137 5.99817 5.08704 4.7246C5.85846 4.48535 7.63384 5.71843 7.63384 5.71843C8.37205 5.5123 9.16562 5.40556 9.9518 5.40556C10.738 5.40556 11.5316 5.5123 12.2698 5.71843C12.2698 5.71843 14.0451 4.48167 14.8166 4.7246C15.3222 6.00185 15.0085 6.98464 14.9125 7.22389C15.5031 7.8754 15.8648 8.38336 15.8648 9.39191C15.8648 12.9439 13.6908 13.2273 11.6275 13.4592C11.9671 13.75 12.255 14.3021 12.255 15.1671C12.255 16.4076 12.2439 17.9425 12.2439 18.2443C12.2439 18.4836 12.4137 18.7744 12.8825 18.6897C16.5735 17.4677 19.076 13.9746 19.076 9.8925C19.076 4.78718 14.9236 0.911255 9.80416 0.911255ZM4.35622 13.6065C4.30824 13.6433 4.31931 13.7279 4.38206 13.7979C4.44112 13.8568 4.52601 13.8825 4.57399 13.8347C4.62197 13.7979 4.6109 13.7132 4.54815 13.6433C4.4891 13.5844 4.4042 13.5586 4.35622 13.6065ZM3.95759 13.3083C3.93175 13.3562 3.96866 13.4151 4.04249 13.4519C4.10154 13.4887 4.17536 13.4776 4.2012 13.4261C4.22704 13.3783 4.19013 13.3194 4.11631 13.2826C4.04249 13.2605 3.98343 13.2715 3.95759 13.3083ZM5.15348 14.6187C5.09442 14.6665 5.11657 14.777 5.20146 14.8469C5.28636 14.9316 5.3934 14.9426 5.44138 14.8837C5.48936 14.8359 5.46722 14.7254 5.3934 14.6555C5.31219 14.5708 5.20146 14.5598 5.15348 14.6187ZM4.73271 14.0776C4.67365 14.1144 4.67365 14.2101 4.73271 14.2948C4.79176 14.3794 4.89142 14.4163 4.9394 14.3794C4.99846 14.3316 4.99846 14.2359 4.9394 14.1512C4.88773 14.0666 4.79176 14.0298 4.73271 14.0776Z" fill="white"/>
</svg>
