<svg width="18" height="17" viewBox="0 0 18 17" fill="none" xmlns="http://www.w3.org/2000/svg">
<path d="M4.59974 16.6678H1.19277V5.65844H4.59974V16.6678ZM2.89442 4.15666C1.80522 4.15666 0.921387 3.25117 0.921387 2.15796C0.921387 1.06476 1.80522 0.177673 2.89442 0.177673C3.98363 0.177673 4.86746 1.06476 4.86746 2.15796C4.86746 3.25117 3.98363 4.15666 2.89442 4.15666ZM17.3511 16.6678H13.9515V11.3085C13.9515 10.0313 13.9258 8.3933 12.1802 8.3933C10.4088 8.3933 10.1374 9.78098 10.1374 11.2165V16.6678H6.73414V5.65844H10.0017V7.16022H10.0494C10.5042 6.29523 11.6154 5.38238 13.273 5.38238C16.7203 5.38238 17.3548 7.66082 17.3548 10.6202V16.6678H17.3511Z" fill="white"/>
</svg>
