<svg width="162" height="185" viewBox="0 0 162 185" fill="none" xmlns="http://www.w3.org/2000/svg">
<path fill-rule="evenodd" clip-rule="evenodd" d="M81.0001 10.5504L151.148 51.0958V132.187L81.0001 172.732L10.8521 132.187V51.0958L81.0001 10.5504Z" fill="url(#paint0_linear)"/>
<path fill-rule="evenodd" clip-rule="evenodd" d="M81.2804 158.141L138.564 125.032V58.8121L81.2804 25.7023L23.9968 58.8121V125.032L81.2804 158.141Z" fill="url(#paint1_linear)"/>
<path fill-rule="evenodd" clip-rule="evenodd" d="M81.5606 36.926L129.378 64.5642V119.841L81.5606 147.479L33.7434 119.841V64.5642L81.5606 36.926Z" fill="url(#paint2_linear)"/>
<path fill-rule="evenodd" clip-rule="evenodd" d="M81.8408 143.551L126.017 118.017V66.9493L81.8408 41.4155L37.6646 66.9493V118.017L81.8408 143.551Z" fill="url(#paint3_linear)"/>
<path fill-rule="evenodd" clip-rule="evenodd" d="M64.4939 55.5096L106.518 57.333L123.498 94.7843L99.4626 129.048L57.2111 126.405L39.9254 85.8258L64.4939 55.5096Z" fill="white"/>
<path fill-rule="evenodd" clip-rule="evenodd" d="M64.0918 55.4118L106.652 57.3005L123.882 95.3104L99.5729 130.049L56.7817 127.328L39.2388 86.1448L64.0918 55.4118ZM95.1428 77.6069L64.3674 90.9315L90.6785 111.091L95.1428 77.6069ZM91.5798 70.93L66.9851 60.4358L61.8187 82.5003L91.5798 70.93ZM85.3459 116.163L58.6163 97.2491L59.2628 122.879L85.3459 116.163ZM119.398 95.4385L101.183 77.122L96.3754 112.344L119.398 95.4385ZM91.6128 120.283L69.0699 126.122L95.5803 127.804L91.6128 120.283ZM115.838 103.749L96.1052 118.316L100.026 125.91L115.838 103.749ZM106.504 62.9566L102.672 70.7537L116.938 85.1245L106.504 62.9566ZM101.729 59.2254L76.6775 58.2177L97.3421 67.1747L101.729 59.2254ZM60.3524 62.8311L42.8055 84.7881L54.5371 87.2506L60.3524 62.8311ZM53.8297 91.5577L42.0415 89.0844L54.3415 117.8L53.8297 91.5577Z" fill="url(#paint4_linear)"/>
<defs>
<linearGradient id="paint0_linear" x1="81.0001" y1="10.5504" x2="81.0001" y2="172.732" gradientUnits="userSpaceOnUse">
<stop stop-color="#FAF3FF"/>
<stop offset="1" stop-color="#D3A9FB"/>
</linearGradient>
<linearGradient id="paint1_linear" x1="81.2804" y1="158.141" x2="81.2804" y2="25.7023" gradientUnits="userSpaceOnUse">
<stop stop-color="#FAF3FF"/>
<stop offset="1" stop-color="#D3A9FB"/>
</linearGradient>
<linearGradient id="paint2_linear" x1="81.5606" y1="36.926" x2="81.5606" y2="147.479" gradientUnits="userSpaceOnUse">
<stop stop-color="#FAF3FF"/>
<stop offset="1" stop-color="#D3A9FB"/>
</linearGradient>
<linearGradient id="paint3_linear" x1="81.8408" y1="143.551" x2="81.8408" y2="41.4155" gradientUnits="userSpaceOnUse">
<stop stop-color="#FAF3FF"/>
<stop offset="1" stop-color="#D3A9FB"/>
</linearGradient>
<linearGradient id="paint4_linear" x1="81.5606" y1="55.4118" x2="81.5606" y2="130.049" gradientUnits="userSpaceOnUse">
<stop stop-color="#9B01FF"/>
<stop offset="1" stop-color="#4D00B4"/>
</linearGradient>
</defs>
</svg>
