<svg width="80" height="80" viewBox="0 0 80 80" fill="none" xmlns="http://www.w3.org/2000/svg">
<circle cx="40" cy="40" r="40" fill="white"/>
<path d="M39.7259 21.9178C29.8883 21.9178 21.9177 29.8884 21.9177 39.726C21.9177 49.5636 29.8883 57.5342 39.7259 57.5342C49.5635 57.5342 57.5342 49.5636 57.5342 39.726C57.5342 29.8884 49.5635 21.9178 39.7259 21.9178ZM39.7259 54.0875C31.7912 54.0875 25.3645 47.6607 25.3645 39.726C25.3645 31.7913 31.7912 25.3645 39.7259 25.3645C47.6607 25.3645 54.0874 31.7913 54.0874 39.726C54.0874 47.6607 47.6607 54.0875 39.7259 54.0875ZM47.0359 35.2596L42.5695 39.726L47.0359 44.1924C47.3734 44.5299 47.3734 45.0757 47.0359 45.4131L45.4131 47.036C45.0756 47.3735 44.5299 47.3735 44.1924 47.036L39.7259 42.5696L35.2595 47.036C34.922 47.3735 34.3763 47.3735 34.0388 47.036L32.416 45.4131C32.0785 45.0757 32.0785 44.5299 32.416 44.1924L36.8824 39.726L32.416 35.2596C32.0785 34.9221 32.0785 34.3764 32.416 34.0389L34.0388 32.416C34.3763 32.0785 34.922 32.0785 35.2595 32.416L39.7259 36.8824L44.1924 32.416C44.5299 32.0785 45.0756 32.0785 45.4131 32.416L47.0359 34.0389C47.3734 34.3764 47.3734 34.9221 47.0359 35.2596Z" fill="#4A4A4A"/>
</svg>
