<svg width="37" height="37" viewBox="0 0 37 37" fill="none" xmlns="http://www.w3.org/2000/svg">
<path d="M36.0454 14.7861L34.4714 13.2121C33.8194 12.5601 32.7623 12.5601 32.1104 13.2121L31.7169 13.6057L23.8466 5.73549L24.2401 5.34198C24.8921 4.68996 24.8921 3.63288 24.2401 2.98093L22.6661 1.40686C22.0141 0.754843 20.957 0.754843 20.3051 1.40686L11.6478 10.0641C10.9958 10.7161 10.9958 11.7732 11.6478 12.4251L13.2218 13.9991C13.8739 14.6511 14.9309 14.6511 15.5829 13.9991L15.9764 13.6056L18.731 16.3602L13.0936 21.9976L12.7 21.604C11.8307 20.7347 10.4213 20.7347 9.55195 21.604L1.56997 29.5861C0.700635 30.4555 0.700635 31.8649 1.56997 32.7342L4.71806 35.8823C5.58739 36.7516 6.99682 36.7516 7.86615 35.8823L15.8482 27.9003C16.7175 27.0309 16.7175 25.6215 15.8482 24.7522L15.4547 24.3587L21.0921 18.7213L23.8467 21.4758L23.4531 21.8693C22.8011 22.5214 22.8011 23.5784 23.4531 24.2304L25.0272 25.8044C25.6792 26.4564 26.7363 26.4564 27.3882 25.8044L36.0454 17.1472C36.6974 16.4952 36.6974 15.4382 36.0454 14.7861Z" fill="#F60C36"/>
</svg>
