<svg width="36" height="36" viewBox="0 0 36 36" fill="none" xmlns="http://www.w3.org/2000/svg">
<path d="M0 28.4977V31.5C0 33.982 6.04688 36 13.5 36C20.9531 36 27 33.982 27 31.5V28.4977C24.0961 30.5437 18.7875 31.5 13.5 31.5C8.2125 31.5 2.90391 30.5437 0 28.4977ZM22.5 9C29.9531 9 36 6.98203 36 4.5C36 2.01797 29.9531 0 22.5 0C15.0469 0 9 2.01797 9 4.5C9 6.98203 15.0469 9 22.5 9ZM0 21.1219V24.75C0 27.232 6.04688 29.25 13.5 29.25C20.9531 29.25 27 27.232 27 24.75V21.1219C24.0961 23.5125 18.7805 24.75 13.5 24.75C8.21953 24.75 2.90391 23.5125 0 21.1219ZM29.25 21.8953C33.2789 21.1148 36 19.6664 36 18V14.9977C34.3688 16.1508 31.9711 16.9383 29.25 17.4234V21.8953ZM13.5 11.25C6.04688 11.25 0 13.7672 0 16.875C0 19.9828 6.04688 22.5 13.5 22.5C20.9531 22.5 27 19.9828 27 16.875C27 13.7672 20.9531 11.25 13.5 11.25ZM28.9195 15.2086C33.1383 14.4492 36 12.9586 36 11.25V8.24766C33.5039 10.0125 29.2148 10.9617 24.7008 11.1867C26.775 12.1922 28.3008 13.5422 28.9195 15.2086Z" fill="#4D00B4"/>
</svg>
