<svg width="37" height="37" viewBox="0 0 37 37" fill="none" xmlns="http://www.w3.org/2000/svg">
<path d="M36.0452 14.7861L34.4712 13.2121C33.8192 12.5601 32.7621 12.5601 32.1101 13.2121L31.7166 13.6057L23.8464 5.73549L24.2399 5.34198C24.8919 4.68996 24.8919 3.63288 24.2399 2.98093L22.6659 1.40686C22.0138 0.754843 20.9568 0.754843 20.3048 1.40686L11.6476 10.0641C10.9956 10.7161 10.9956 11.7732 11.6476 12.4251L13.2216 13.9991C13.8736 14.6511 14.9307 14.6511 15.5826 13.9991L15.9762 13.6056L18.7307 16.3602L13.0933 21.9976L12.6998 21.604C11.8305 20.7347 10.421 20.7347 9.55171 21.604L1.56972 29.5861C0.700391 30.4555 0.700391 31.8649 1.56972 32.7342L4.71782 35.8823C5.58715 36.7516 6.99657 36.7516 7.86591 35.8823L15.848 27.9003C16.7173 27.0309 16.7173 25.6215 15.848 24.7522L15.4544 24.3587L21.0919 18.7213L23.8464 21.4758L23.4529 21.8693C22.8009 22.5214 22.8009 23.5784 23.4529 24.2304L25.0269 25.8044C25.6789 26.4564 26.736 26.4564 27.388 25.8044L36.0452 17.1472C36.6971 16.4952 36.6971 15.4382 36.0452 14.7861Z" fill="#FF9900"/>
</svg>
