<svg width="28" height="37" viewBox="0 0 28 37" fill="none" xmlns="http://www.w3.org/2000/svg">
<path d="M25.4725 0.917847H1.97935C1.05256 0.917847 0.30127 1.6653 0.30127 2.58737V3.70038C0.30127 4.62244 1.05256 5.3699 1.97935 5.3699C1.97935 11.6977 5.5464 17.038 10.4286 18.7261C5.5464 20.4141 1.97935 25.7544 1.97935 32.0822C1.05256 32.0822 0.30127 32.8297 0.30127 33.7518V34.8648C0.30127 35.7868 1.05256 36.5343 1.97935 36.5343H25.4725C26.3993 36.5343 27.1506 35.7868 27.1506 34.8648V33.7518C27.1506 32.8297 26.3993 32.0822 25.4725 32.0822C25.4725 25.7544 21.9055 20.4141 17.0232 18.7261C21.9055 17.038 25.4725 11.6977 25.4725 5.3699C26.3993 5.3699 27.1506 4.62244 27.1506 3.70038V2.58737C27.1506 1.6653 26.3993 0.917847 25.4725 0.917847ZM20.9976 32.0822H6.45424C6.45424 26.694 9.68483 22.0651 13.7259 22.0651C17.7663 22.0651 20.9976 26.6923 20.9976 32.0822Z" fill="#CCCCCC"/>
</svg>
