<svg width="37" height="37" viewBox="0 0 37 37" fill="none" xmlns="http://www.w3.org/2000/svg">
<path d="M18.7259 0.917786C8.88834 0.917786 0.917725 8.8884 0.917725 18.726C0.917725 28.5636 8.88834 36.5342 18.7259 36.5342C28.5635 36.5342 36.5342 28.5636 36.5342 18.726C36.5342 8.8884 28.5635 0.917786 18.7259 0.917786ZM18.7259 33.0875C10.7912 33.0875 4.36448 26.6607 4.36448 18.726C4.36448 10.7913 10.7912 4.36454 18.7259 4.36454C26.6607 4.36454 33.0874 10.7913 33.0874 18.726C33.0874 26.6607 26.6607 33.0875 18.7259 33.0875ZM26.0359 14.2596L21.5695 18.726L26.0359 23.1924C26.3734 23.5299 26.3734 24.0757 26.0359 24.4131L24.4131 26.036C24.0756 26.3735 23.5299 26.3735 23.1924 26.036L18.7259 21.5696L14.2595 26.036C13.922 26.3735 13.3763 26.3735 13.0388 26.036L11.416 24.4131C11.0785 24.0757 11.0785 23.5299 11.416 23.1924L15.8824 18.726L11.416 14.2596C11.0785 13.9221 11.0785 13.3764 11.416 13.0389L13.0388 11.416C13.3763 11.0785 13.922 11.0785 14.2595 11.416L18.7259 15.8824L23.1924 11.416C23.5299 11.0785 24.0756 11.0785 24.4131 11.416L26.0359 13.0389C26.3734 13.3764 26.3734 13.9221 26.0359 14.2596Z" fill="#4A4A4A"/>
</svg>
