<svg width="21" height="19" viewBox="0 0 21 19" fill="none" xmlns="http://www.w3.org/2000/svg">
<path d="M18.8413 5.22248C18.8547 5.40901 18.8547 5.59559 18.8547 5.78213C18.8547 11.4718 14.5241 18.0277 6.60913 18.0277C4.17067 18.0277 1.90546 17.3214 0 16.0956C0.346459 16.1355 0.679547 16.1489 1.03934 16.1489C3.05136 16.1489 4.90354 15.4693 6.38261 14.3101C4.49047 14.2701 2.90481 13.0309 2.35848 11.3253C2.625 11.3652 2.89148 11.3919 3.17133 11.3919C3.55774 11.3919 3.94419 11.3386 4.30393 11.2453C2.33186 10.8456 0.852756 9.11334 0.852756 7.02134V6.96806C1.4257 7.28786 2.092 7.48773 2.79817 7.51435C1.6389 6.74149 0.879416 5.42235 0.879416 3.92995C0.879416 3.13047 1.09257 2.39761 1.46569 1.75801C3.58436 4.36968 6.76901 6.07523 10.34 6.26181C10.2734 5.94201 10.2334 5.60892 10.2334 5.2758C10.2334 2.90394 12.1522 0.971863 14.5374 0.971863C15.7766 0.971863 16.8959 1.49153 17.682 2.331C18.6547 2.14446 19.5875 1.78467 20.4136 1.29166C20.0938 2.29105 19.4143 3.13051 18.5215 3.66347C19.3876 3.57024 20.2271 3.33034 20.9999 2.99726C20.4137 3.85001 19.6808 4.6095 18.8413 5.22248Z" fill="#009AFF"/>
</svg>
