<svg width="19" height="16" viewBox="0 0 19 16" fill="none" xmlns="http://www.w3.org/2000/svg">
<path d="M16.9087 4.20086C16.9206 4.36826 16.9206 4.53571 16.9206 4.70311C16.9206 9.80917 13.0343 15.6925 5.93119 15.6925C3.74286 15.6925 1.71001 15.0587 0 13.9586C0.31092 13.9945 0.609841 14.0065 0.932724 14.0065C2.73836 14.0065 4.40055 13.3966 5.7279 12.3563C4.02986 12.3204 2.60684 11.2083 2.11656 9.67765C2.35574 9.7135 2.59488 9.73743 2.84602 9.73743C3.1928 9.73743 3.5396 9.68958 3.86245 9.60591C2.09267 9.24714 0.765283 7.69261 0.765283 5.8152V5.76739C1.27946 6.05438 1.87741 6.23375 2.51114 6.25764C1.47079 5.56406 0.789209 4.38023 0.789209 3.04092C0.789209 2.32345 0.980502 1.66576 1.31535 1.09177C3.21668 3.43554 6.07467 4.96614 9.27939 5.13358C9.21962 4.84659 9.18373 4.54767 9.18373 4.24871C9.18373 2.12016 10.9057 0.386261 13.0462 0.386261C14.1583 0.386261 15.1627 0.852623 15.8683 1.60598C16.7412 1.43858 17.5782 1.11569 18.3197 0.673256C18.0326 1.57013 17.4228 2.32349 16.6216 2.80177C17.3989 2.71811 18.1523 2.50282 18.8458 2.2039C18.3198 2.96918 17.662 3.65076 16.9087 4.20086Z" fill="white"/>
</svg>
